<svg xmlns="http://www.w3.org/2000/svg" enable-background="new 0 0 32 32" viewBox="0 0 32 32" id="html"><path fill="#FFE6E2" d="M26,32H6c-3.314,0-6-2.686-6-6V6c0-3.314,2.686-6,6-6h20c3.314,0,6,2.686,6,6v20C32,29.314,29.314,32,26,32z"></path><path fill="#FFE6E2" d="M26,32H6c-3.314,0-6-2.686-6-6V6c0-3.314,2.686-6,6-6h20c3.314,0,6,2.686,6,6v20C32,29.314,29.314,32,26,32z"></path><path fill="#FC573B" d="M21.592,22.136L22.834,8H9.167H9.166l1.242,14.136L15.982,24L21.592,22.136z M12.468,19.632l-0.213-2.707h1.698l0.125,1.361l1.904,0.518l1.911-0.518l0.213-2.222h-5.94l-0.456-5.2h8.581l-0.156,1.704h-6.541l0.146,1.765h6.249l-0.484,5.3l-3.484,0.965v0.011h-0.039L12.468,19.632z"></path></svg>