<svg xmlns="http://www.w3.org/2000/svg" xmlns:xlink="http://www.w3.org/1999/xlink" version="1.1" x="0px" y="0px" viewBox="0 0 100 125" enable-background="new 0 0 100 100" xml:space="preserve"><g><g><path d="M38.893,79.875l-0.999-1.733c0.006-0.003,0.614-0.356,1.592-1.047l1.153,1.634C39.577,79.479,38.92,79.859,38.893,79.875z    "/></g><g><path d="M43.984,76.104l-1.308-1.513c1.02-0.882,2.015-1.823,2.956-2.797l1.438,1.39C46.088,74.201,45.049,75.183,43.984,76.104z     M49.881,69.996l-1.56-1.252c0.854-1.064,1.658-2.169,2.388-3.285l1.673,1.096C51.617,67.724,50.775,68.881,49.881,69.996z     M54.534,62.879l-1.775-0.921c0.623-1.201,1.185-2.442,1.671-3.688l1.863,0.727C55.781,60.309,55.189,61.615,54.534,62.879z     M57.624,54.945l-1.932-0.52c0.348-1.294,0.629-2.626,0.835-3.959l1.977,0.306C58.287,52.177,57.991,53.581,57.624,54.945z     M58.928,46.532l-1.998-0.093c0.028-0.605,0.043-1.219,0.043-1.842c0-0.726-0.02-1.463-0.061-2.213l1.997-0.109    c0.043,0.787,0.063,1.561,0.063,2.322C58.973,45.251,58.957,45.896,58.928,46.532z M56.499,38.342    c-0.196-1.315-0.457-2.66-0.774-3.997l1.945-0.463c0.332,1.393,0.603,2.794,0.808,4.165L56.499,38.342z M54.626,30.415    c-0.406-1.266-0.872-2.561-1.384-3.848l1.858-0.739c0.529,1.329,1.01,2.667,1.43,3.977L54.626,30.415z"/></g><g><path d="M51.602,22.791c-0.277-0.586-0.565-1.178-0.866-1.774l1.786-0.9c0.309,0.612,0.604,1.219,0.888,1.821L51.602,22.791z"/></g></g><g><path d="M38.394,80.008c-0.268,0-0.527-0.107-0.718-0.304c-0.241-0.249-0.336-0.605-0.252-0.941l1.803-7.15   c0.135-0.535,0.681-0.858,1.214-0.725c0.535,0.135,0.86,0.679,0.725,1.214l-1.407,5.582l7.02-1.541   c0.54-0.117,1.073,0.223,1.191,0.762c0.119,0.54-0.223,1.073-0.762,1.191l-8.6,1.888C38.537,80,38.465,80.008,38.394,80.008z"/></g></svg>